#!OML:ASF H:\Not Pregnant\Project 1\Capture day 1\Session 1\non-pregnant.ASF
:FULLY-SPECIFIED
:DEGREES
599
root -5.20785 16.0184 35.0951 191.383 -76.0509 -184.286
lowerback -9.46698 2.28139 -3.14155
upperback -2.83611 3.25505 -1.56594
thorax 2.26904 1.5666 0.504314
lowerneck 21.2871 -6.60101 -20.6813
upperneck -14.65 -19.0605 55.1668
head 2.01835 -16.5455 39.1162
rclavicle -9.21864e-015 2.62396e-014
rhumerus -32.4822 6.96006 -93.868
rradius 25.6985
rwrist 21.8173
rhand -12.3016 0.710079
rfingers 7.12502
rthumb 13.7664 -28.8145
lclavicle -9.21864e-015 2.62396e-014
lhumerus -40.7471 -15.1719 94.6332
lradius 32.0064
lwrist 38.3812
lhand -14.0405 -12.6565
lfingers 7.12502
lthumb 12.0901 16.9743
rfemur -16.9304 5.8369 15.4308
rtibia 27.1486
rfoot -18.9272 2.21614
rtoes -19.8558
lfemur -12.4434 6.24056 -21.4061
ltibia 18.3985
lfoot -16.1159 -4.72024
ltoes -20.5116
600
root -5.2107 16.0283 35.0648 190.341 -76.1749 -183.18
lowerback -9.5263 2.28792 -2.89525
upperback -2.88874 3.2389 -1.48854
thorax 2.2573 1.55935 0.446417
lowerneck 21.3316 -6.59936 -20.7224
upperneck -14.5239 -19.0777 55.1363
head 2.05348 -16.5393 39.0164
rclavicle -1.36167e-014 1.15295e-014
rhumerus -32.5576 6.78751 -93.8069
rradius 25.6598
rwrist 21.9846
rhand -12.071 0.853592
rfingers 7.12502
rthumb 13.9886 -28.6558
lclavicle -1.36167e-014 1.15295e-014
lhumerus -40.8645 -15.2356 94.7543
lradius 31.9867
lwrist 38.1269
lhand -14.234 -12.8331
lfingers 7.12502
lthumb 11.9034 16.8085
rfemur -16.6382 5.80691 15.8587
rtibia 26.6322
rfoot -18.7195 2.26178
rtoes -19.8016
lfemur -12.3586 5.59949 -20.9704
ltibia 18.2903
lfoot -15.9548 -4.07829
ltoes -20.8336
601
root -5.21341 16.0379 35.0352 189.286 -76.2974 -182.058
lowerback -9.5852 2.29514 -2.6459
upperback -2.94334 3.22286 -1.40939
thorax 2.24323 1.552 0.388477
lowerneck 21.3733 -6.60104 -20.7696
upperneck -14.3963 -19.1008 55.105
head 2.09448 -16.5354 38.9088
rclavicle -6.58474e-015 3.97569e-016
rhumerus -32.636 6.64085 -93.7489
rradius 25.632
rwrist 22.1302
rhand -11.8544 1.00715
rfingers 7.12502
rthumb 14.1973 -28.4877
lclavicle -6.58474e-015 3.97569e-016
lhumerus -40.9666 -15.2677 94.8513
lradius 32.0073
lwrist 38.1039
lhand -14.3142 -12.9209
lfingers 7.12502
lthumb 11.8261 16.7252
rfemur -16.3519 5.77812 16.2814
rtibia 26.1164
rfoot -18.5087 2.30775
rtoes -19.734
lfemur -12.2855 4.91472 -20.5365
ltibia 18.1957
lfoot -15.784 -3.39573
ltoes -21.1488
602
root -5.21603 16.0472 35.006 188.244 -76.4178 -180.946
lowerback -9.64563 2.29896 -2.40101
upperback -2.99806 3.20237 -1.33005
thorax 2.22959 1.54222 0.332708
lowerneck 21.4106 -6.60265 -20.8189
upperneck -14.2685 -19.1257 55.0737
head 2.13831 -16.5325 38.8018
rclavicle 6.08281e-014 -4.37326e-015
rhumerus -32.7207 6.55486 -93.7108
rradius 25.6245
rwrist 22.2218
rhand -11.6448 1.161
rfingers 7.12502
rthumb 14.3993 -28.3195
lclavicle 6.08281e-014 -4.37326e-015
lhumerus -41.0302 -15.2047 94.8888
lradius 32.0383
lwrist 38.2158
lhand -14.2639 -12.9271
lfingers 7.12502
lthumb 11.8746 16.7162
rfemur -16.0754 5.74102 16.693
rtibia 25.6087
rfoot -18.3001 2.36359
rtoes -19.6346
lfemur -12.2208 4.20211 -20.1118
ltibia 18.1083
lfoot -15.6054 -2.69136
ltoes -21.4263
603
root -5.21866 16.056 34.9777 187.244 -76.533 -179.873
lowerback -9.70853 2.29693 -2.16689
upperback -3.05279 3.17475 -1.24981
thorax 2.21662 1.52865 0.283089
lowerneck 21.4496 -6.6 -20.8807
upperneck -14.1437 -19.1552 55.0402
head 2.18637 -16.5346 38.7157
rclavicle 1.42131e-014 -8.34896e-015
rhumerus -32.812 6.56135 -93.7004
rradius 25.641
rwrist 22.2205
rhand -11.4439 1.29237
rfingers 7.12502
rthumb 14.5929 -28.1743
lclavicle 1.42131e-014 -8.34896e-015
lhumerus -41.0784 -15.1065 94.9051
lradius 32.0859
lwrist 38.4552
lhand -14.1454 -12.8915
lfingers 7.12502
lthumb 11.9889 16.7452
rfemur -15.8118 5.70005 17.0848
rtibia 25.1149
rfoot -18.0969 2.42443
rtoes -19.5201
lfemur -12.1651 3.48754 -19.7077
ltibia 18.0264
lfoot -15.4232 -1.97985
ltoes -21.7029
604
root -5.22133 16.0644 34.9503 186.341 -76.6422 -178.899
lowerback -9.77456 2.28618 -1.95495
upperback -3.10695 3.13736 -1.17244
thorax 2.20489 1.50997 0.241863
lowerneck 21.4762 -6.59215 -20.9494
upperneck -14.0069 -19.18 55.0029
head 2.23848 -16.5321 38.6262
rclavicle -1.4387e-014 -1.07344e-014
rhumerus -32.9105 6.63825 -93.7138
rradius 25.6822
rwrist 22.1561
rhand -11.242 1.39073
rfingers 7.12502
rthumb 14.7874 -28.0617
lclavicle -1.4387e-014 -1.07344e-014
lhumerus -41.1349 -15.0162 94.9412
lradius 32.1147
lwrist 38.5365
lhand -14.1072 -12.8759
lfingers 7.12502
lthumb 12.0258 16.7586
rfemur -15.5615 5.64837 17.4432
rtibia 24.6405
rfoot -17.9059 2.4906
rtoes -19.4038
lfemur -12.1189 2.79614 -19.3389
ltibia 17.9538
lfoot -15.2452 -1.29269
ltoes -21.9374
605
root -5.22376 16.0722 34.9232 185.496 -76.7502 -177.984
lowerback -9.83565 2.27352 -1.75799
upperback -3.15969 3.09858 -1.09935
thorax 2.19114 1.49045 0.204156
lowerneck 21.4997 -6.58673 -21.0209
upperneck -13.8718 -19.2096 54.9662
head 2.29478 -16.5323 38.5347
rclavicle -4.00054e-015 -1.47101e-014
rhumerus -33.0151 6.78827 -93.7701
rradius 25.7474
rwrist 21.9651
rhand -11.1133 1.38166
rfingers 7.12502
rthumb 14.9113 -28.0616
lclavicle -4.00054e-015 -1.47101e-014
lhumerus -41.1885 -14.9316 94.9772
lradius 32.1408
lwrist 38.6136
lhand -14.0701 -12.8755
lfingers 7.12502
lthumb 12.0615 16.7569
rfemur -15.321 5.5987 17.7818
rtibia 24.1871
rfoot -17.7238 2.54538
rtoes -19.3025
lfemur -12.0857 2.1568 -18.994
ltibia 17.8997
lfoot -15.0794 -0.652371
ltoes -22.1833
606
root -5.22576 16.0791 34.896 184.672 -76.855 -177.097
lowerback -9.88806 2.25598 -1.57357
upperback -3.21278 3.054 -1.02378
thorax 2.17133 1.46801 0.174891
lowerneck 21.5203 -6.57694 -21.1028
upperneck -13.7283 -19.2365 54.9244
head 2.35293 -16.5294 38.4439
rclavicle 4.53974e-014 -7.95139e-016
rhumerus -33.1254 6.98998 -93.8497
rradius 25.8256
rwrist 21.703
rhand -11.0079 1.33512
rfingers 7.12502
rthumb 15.0128 -28.1006
lclavicle 4.53974e-014 -7.95139e-016
lhumerus -41.2562 -14.8665 95.0415
lradius 32.1353
lwrist 38.4594
lhand -14.146 -12.9287
lfingers 7.12502
lthumb 11.9883 16.7079
rfemur -15.0891 5.54762 18.1118
rtibia 23.7565
rfoot -17.5555 2.59037
rtoes -19.2312
lfemur -12.0684 1.59089 -18.6624
ltibia 17.8719
lfoot -14.9327 -0.0792116
ltoes -22.442
607
root -5.22714 16.0852 34.8686 183.816 -76.9548 -176.181
lowerback -9.92918 2.24139 -1.39248
upperback -3.2651 3.01335 -0.946637
thorax 2.14563 1.44749 0.149045
lowerneck 21.5399 -6.57114 -21.1773
upperneck -13.5906 -19.2646 54.8852
head 2.40939 -16.5271 38.3475
rclavicle -3.05631e-015 4.37326e-015
rhumerus -33.2268 7.18681 -93.9209
rradius 25.9023
rwrist 21.4538
rhand -10.8702 1.34154
rfingers 7.12502
rthumb 15.1455 -28.0842
lclavicle -3.05631e-015 4.37326e-015
lhumerus -41.3305 -14.832 95.1207
lradius 32.1191
lwrist 38.2111
lhand -14.2824 -13.0141
lfingers 7.12502
lthumb 11.8568 16.6302
rfemur -14.8663 5.50599 18.4476
rtibia 23.3477
rfoot -17.3952 2.62367
rtoes -19.1706
lfemur -12.0709 1.10258 -18.3273
ltibia 17.8785
lfoot -14.8081 0.426782
ltoes -22.7388
608
root -5.22789 16.0904 34.8404 182.943 -77.0508 -175.258
lowerback -9.95401 2.23551 -1.2193
upperback -3.31511 2.985 -0.874557
thorax 2.11296 1.43311 0.123137
lowerneck 21.5636 -6.57487 -21.2346
upperneck -13.4695 -19.2995 54.854
head 2.46279 -16.5306 38.2481
rclavicle -4.75592e-014 -1.07344e-014
rhumerus -33.3203 7.36981 -93.9991
rradius 25.9797
rwrist 21.1831
rhand -10.7687 1.30698
rfingers 7.12502
rthumb 15.2433 -28.1114
lclavicle -4.75592e-014 -1.07344e-014
lhumerus -41.4087 -14.8424 95.212
lradius 32.0892
lwrist 37.8646
lhand -14.4594 -13.1249
lfingers 7.12502
lthumb 11.6861 16.5292
rfemur -14.6483 5.46533 18.7865
rtibia 22.9633
rfoot -17.247 2.65214
rtoes -19.103
lfemur -12.0889 0.685972 -17.9912
ltibia 17.9219
lfoot -14.7061 0.867832
ltoes -23.0802
609
root -5.228 16.0946 34.8118 182.051 -77.1429 -174.325
lowerback -9.96299 2.23648 -1.05217
upperback -3.36186 2.96646 -0.806408
thorax 2.07468 1.42362 0.0970845
lowerneck 21.591 -6.58722 -21.2773
upperneck -13.3653 -19.3415 54.8305
head 2.51401 -16.5405 38.1483
rclavicle -3.90115e-015 -5.1684e-015
rhumerus -33.4067 7.54264 -94.0793
rradius 26.0561
rwrist 20.9385
rhand -10.6709 1.2708
rfingers 7.12502
rthumb 15.3375 -28.1404
lclavicle -3.90115e-015 -5.1684e-015
lhumerus -41.4759 -14.8622 95.2912
lradius 32.0736
lwrist 37.6428
lhand -14.5916 -13.2243
lfingers 7.12502
lthumb 11.5586 16.437
rfemur -14.4371 5.44027 19.1264
rtibia 22.607
rfoot -17.1073 2.66367
rtoes -19.0272
lfemur -12.1218 0.319786 -17.6531
ltibia 18.0015
lfoot -14.6218 1.25891
ltoes -23.4528
610
root -5.22748 16.0979 34.7833 181.172 -77.2313 -173.412
lowerback -9.95921 2.2422 -0.887173
upperback -3.40609 2.95474 -0.746577
thorax 2.03223 1.41747 0.0639601
lowerneck 21.6233 -6.60445 -21.3124
upperneck -13.2733 -19.39 54.8118
head 2.56457 -16.5566 38.0546
rclavicle -4.31363e-014 -7.15625e-015
rhumerus -33.4844 7.70285 -94.1621
rradius 26.1275
rwrist 20.7368
rhand -10.5785 1.23078
rfingers 7.12502
rthumb 15.4265 -28.1736
lclavicle -4.31363e-014 -7.15625e-015
lhumerus -41.5283 -14.8772 95.3447
lradius 32.0745
lwrist 37.5392
lhand -14.6549 -13.2905
lfingers 7.12502
lthumb 11.4976 16.3742
rfemur -14.2409 5.40886 19.459
rtibia 22.285
rfoot -16.9825 2.67781
rtoes -18.9331
lfemur -12.1699 -0.0203268 -17.3209
ltibia 18.1129
lfoot -14.5507 1.61787
ltoes -23.8291
611
root -5.2262 16.1004 34.7551 180.309 -77.3171 -172.519
lowerback -9.94257 2.24754 -0.720145
upperback -3.44882 2.94261 -0.693066
thorax 1.98467 1.41105 0.0226412
lowerneck 21.6572 -6.62079 -21.3509
upperneck -13.1845 -19.4429 54.794
head 2.61824 -16.5776 37.9733
rclavicle -5.73991e-015 1.19271e-015
rhumerus -33.548 7.82334 -94.2372
rradius 26.1837
rwrist 20.6193
rhand -10.4811 1.19892
rfingers 7.12502
rthumb 15.5203 -28.1982
lclavicle -5.73991e-015 1.19271e-015
lhumerus -41.5667 -14.8715 95.3683
lradius 32.1019
lwrist 37.6146
lhand -14.6439 -13.3245
lfingers 7.12502
lthumb 11.5082 16.3395
rfemur -14.0637 5.36399 19.7838
rtibia 21.9992
rfoot -16.8746 2.70211
rtoes -18.8352
lfemur -12.2365 -0.351329 -16.9952
ltibia 18.2576
lfoot -14.4886 1.95952
ltoes -24.2107
612
root -5.22433 16.102 34.7278 179.488 -77.4006 -171.671
lowerback -9.91866 2.24208 -0.558505
upperback -3.48936 2.91685 -0.638971
thorax 1.93506 1.39778 -0.0168524
lowerneck 21.6809 -6.62722 -21.4029
upperneck -13.0832 -19.4896 54.7705
head 2.67574 -16.5946 37.9028
rclavicle -7.47927e-015 -6.36111e-015
rhumerus -33.5998 7.93629 -94.2947
rradius 26.2251
rwrist 20.6101
rhand -10.3497 1.23008
rfingers 7.12502
rthumb 15.6469 -28.1572
lclavicle -7.47927e-015 -6.36111e-015
lhumerus -41.5979 -14.8352 95.3743
lradius 32.1531
lwrist 37.8138
lhand -14.5936 -13.3381
lfingers 7.12502
lthumb 11.5567 16.3233
rfemur -13.9074 5.30341 20.0926
rtibia 21.7502
rfoot -16.7842 2.73714
rtoes -18.737
lfemur -12.3259 -0.681074 -16.6842
ltibia 18.4407
lfoot -14.4375 2.28987
ltoes -24.5837
613
root -5.22168 16.1028 34.7009 178.66 -77.4823 -170.82
lowerback -9.88544 2.2313 -0.395545
upperback -3.52578 2.88425 -0.581908
thorax 1.88444 1.38109 -0.0550558
lowerneck 21.701 -6.63055 -21.4653
upperneck -12.9812 -19.5359 54.7441
head 2.73572 -16.6113 37.8393
rclavicle -2.42766e-014 3.97569e-015
rhumerus -33.6479 8.11972 -94.3699
rradius 26.2708
rwrist 20.5816
rhand -10.241 1.24257
rfingers 7.12502
rthumb 15.7516 -28.1365
lclavicle -2.42766e-014 3.97569e-015
lhumerus -41.6213 -14.7865 95.3766
lradius 32.2061
lwrist 38.0084
lhand -14.549 -13.3626
lfingers 7.12502
lthumb 11.5997 16.2963
rfemur -13.7693 5.22983 20.3977
rtibia 21.5354
rfoot -16.7065 2.78693
rtoes -18.6097
lfemur -12.441 -1.00782 -16.3747
ltibia 18.6696
lfoot -14.4 2.60532
ltoes -24.9388
